<svg width="1024" height="1024" viewBox="0 0 1024 1024" fill="none" xmlns="http://www.w3.org/2000/svg">
<g clip-path="url(#clip0_27_1611)">
<rect width="1024" height="1024" rx="8" transform="matrix(1 0 0 -1 0 1024)" fill="#E46042"/>
<rect x="-56.8887" y="-142.223" width="1166.22" height="568.889" fill="black"/>
<path d="M263.111 682.667C278.021 682.667 290.527 677.547 300.631 667.307C310.734 657.067 315.768 644.409 315.733 629.333C315.733 614.222 310.682 601.547 300.578 591.307C290.475 581.067 277.986 575.964 263.111 576C248.202 576 235.695 581.12 225.592 591.36C215.488 601.6 210.454 614.258 210.489 629.333C210.489 644.444 215.541 657.12 225.644 667.36C235.748 677.6 248.237 682.702 263.111 682.667ZM263.111 896H578.844C593.754 896 606.261 890.88 616.364 880.64C626.468 870.4 631.502 857.742 631.467 842.667C631.467 827.556 626.415 814.88 616.311 804.64C606.208 794.4 593.719 789.298 578.844 789.333H263.111C248.202 789.333 235.695 794.453 225.592 804.693C215.488 814.933 210.454 827.591 210.489 842.667C210.489 857.778 215.541 870.453 225.644 880.693C235.748 890.933 248.237 896.036 263.111 896ZM789.333 896C804.243 896 816.749 890.88 826.853 880.64C836.956 870.4 841.991 857.742 841.956 842.667C841.956 827.556 836.904 814.88 826.8 804.64C816.697 794.4 804.208 789.298 789.333 789.333C774.424 789.333 761.917 794.453 751.814 804.693C741.71 814.933 736.676 827.591 736.711 842.667C736.711 857.778 741.763 870.453 751.866 880.693C761.97 890.933 774.459 896.036 789.333 896ZM473.6 682.667H789.333C804.243 682.667 816.749 677.547 826.853 667.307C836.956 657.067 841.991 644.409 841.956 629.333C841.956 614.222 836.904 601.547 826.8 591.307C816.697 581.067 804.208 575.964 789.333 576H473.6C458.69 576 446.184 581.12 436.08 591.36C425.977 601.6 420.943 614.258 420.978 629.333C420.978 644.444 426.03 657.12 436.133 667.36C446.236 677.6 458.725 682.702 473.6 682.667ZM105.245 1109.33C76.3023 1109.33 51.5172 1098.88 30.8893 1077.97C10.2614 1057.07 -0.0349921 1031.96 8.93417e-05 1002.67V362.667C8.93417e-05 333.333 10.314 308.213 30.942 287.307C51.5699 266.4 76.3374 255.965 105.245 256H947.2C976.142 256 1000.93 266.453 1021.56 287.36C1042.18 308.267 1052.48 333.369 1052.44 362.667V1002.67C1052.44 1032 1042.13 1057.12 1021.5 1078.03C1000.87 1098.93 976.107 1109.37 947.2 1109.33H105.245Z" fill="black"/>
<path d="M456.296 175.569C450.343 172.271 443.631 170.583 436.825 170.671C430.018 170.76 423.353 172.623 417.487 176.075C411.622 179.528 406.76 184.45 403.381 190.357C400.002 196.263 398.224 202.948 398.223 209.752V381.884C398.224 388.688 400.002 395.373 403.381 401.279C406.76 407.186 411.622 412.108 417.487 415.561C423.353 419.013 430.018 420.876 436.825 420.965C443.631 421.053 450.343 419.365 456.296 416.067L636.431 316.334C640.095 314.304 643.149 311.331 645.275 307.724C647.401 304.116 648.523 300.005 648.523 295.818C648.523 291.631 647.401 287.52 645.275 283.912C643.149 280.305 640.095 277.332 636.431 275.302L456.296 175.569Z" fill="white"/>
</g>
<defs>
<clipPath id="clip0_27_1611">
<rect width="1024" height="1024" rx="8" transform="matrix(1 0 0 -1 0 1024)" fill="white"/>
</clipPath>
</defs>
</svg>
